<svg version="1.1" xmlns="http://www.w3.org/2000/svg" viewBox="0 0 145.63387995517235 150.85837376310883" width="291.2677599103447" height="301.71674752621766">
  <!-- svg-source:excalidraw -->
  
  <defs>
    <style class="style-fonts">
      @font-face {
        font-family: "Virgil";
        src: url("https://excalidraw.com/Virgil.woff2");
      }
      @font-face {
        font-family: "Cascadia";
        src: url("https://excalidraw.com/Cascadia.woff2");
      }
      @font-face {
        font-family: "Assistant";
        src: url("https://excalidraw.com/Assistant-Regular.woff2");
      }
    </style>
    
  </defs>
  <rect x="0" y="0" width="145.63387995517235" height="150.85837376310883" fill="#ffffff" fill-opacity="0"></rect><g stroke-linecap="round"><g transform="translate(82.92276140743598 11.012563164904805) rotate(0 -10.87281393701221 64.73099575139304)"><path d="M0.63 -1.01 C-11.49 12.51, -79.95 59.28, -71.69 81.09 C-63.43 102.9, 29.87 121.94, 50.19 129.85 M-0.49 1.07 C-12.78 14.22, -81 58.03, -72.13 79.13 C-63.26 100.24, 32.33 119.36, 52.71 127.7" stroke="#f9629f" stroke-width="4" fill="none"></path></g><g transform="translate(82.92276140743598 11.012563164904805) rotate(0 -10.87281393701221 64.73099575139304)"><path d="M27.76 129.21 C35.72 130.1, 47.57 126.72, 52.71 127.7 M27.76 129.21 C36.76 129.87, 44.27 128.15, 52.71 127.7" stroke="#f9629f" stroke-width="4" fill="none"></path></g><g transform="translate(82.92276140743598 11.012563164904805) rotate(0 -10.87281393701221 64.73099575139304)"><path d="M32.63 112.82 C38.7 120.07, 48.67 123.03, 52.71 127.7 M32.63 112.82 C39.92 118.89, 45.82 122.6, 52.71 127.7" stroke="#f9629f" stroke-width="4" fill="none"></path></g></g><mask></mask></svg>